<mxfile host="app.diagrams.net" modified="2024-01-24T23:39:26.472Z" agent="Mozilla/5.0 (Windows NT 10.0; Win64; x64) AppleWebKit/537.36 (KHTML, like Gecko) Chrome/120.0.0.0 Safari/537.36" etag="HyyooNNDkKq10uTDQC0w" version="21.6.2" type="github">
  <diagram name="Page-1" id="TjVeeE-bJ644JjcEta67">
    <mxGraphModel dx="1328" dy="1683" grid="1" gridSize="10" guides="1" tooltips="1" connect="1" arrows="1" fold="1" page="1" pageScale="1" pageWidth="850" pageHeight="1100" math="0" shadow="0">
      <root>
        <mxCell id="0" />
        <mxCell id="1" parent="0" />
        <mxCell id="Y0CWCf-vrmVGF1hzHRmy-1" value="&lt;font style=&quot;font-size: 11px;&quot;&gt;EPDB&amp;nbsp;&lt;br&gt;Provider&lt;/font&gt;" style="shape=cylinder3;whiteSpace=wrap;html=1;boundedLbl=1;backgroundOutline=1;size=15;fillColor=#fff2cc;strokeColor=#d6b656;" parent="1" vertex="1">
          <mxGeometry x="70" y="-1010" width="50" height="70" as="geometry" />
        </mxCell>
        <mxCell id="Y0CWCf-vrmVGF1hzHRmy-2" value="&lt;font style=&quot;font-size: 11px;&quot;&gt;EDW Claims&lt;/font&gt;" style="shape=cylinder3;whiteSpace=wrap;html=1;boundedLbl=1;backgroundOutline=1;size=15;fillColor=#fff2cc;strokeColor=#d6b656;" parent="1" vertex="1">
          <mxGeometry x="150" y="-1010" width="50" height="70" as="geometry" />
        </mxCell>
        <mxCell id="Y0CWCf-vrmVGF1hzHRmy-3" value="" style="endArrow=classic;html=1;rounded=0;" parent="1" edge="1">
          <mxGeometry width="50" height="50" relative="1" as="geometry">
            <mxPoint x="120" y="-920" as="sourcePoint" />
            <mxPoint x="130" y="-880" as="targetPoint" />
          </mxGeometry>
        </mxCell>
        <mxCell id="Y0CWCf-vrmVGF1hzHRmy-4" value="" style="endArrow=classic;html=1;rounded=0;" parent="1" edge="1">
          <mxGeometry width="50" height="50" relative="1" as="geometry">
            <mxPoint x="174.5" y="-920" as="sourcePoint" />
            <mxPoint x="174.5" y="-880" as="targetPoint" />
          </mxGeometry>
        </mxCell>
        <mxCell id="Y0CWCf-vrmVGF1hzHRmy-5" value="" style="endArrow=classic;html=1;rounded=0;" parent="1" edge="1">
          <mxGeometry width="50" height="50" relative="1" as="geometry">
            <mxPoint x="249.5" y="-920" as="sourcePoint" />
            <mxPoint x="210" y="-880" as="targetPoint" />
          </mxGeometry>
        </mxCell>
        <mxCell id="Y0CWCf-vrmVGF1hzHRmy-7" value="&lt;b&gt;Internal &lt;br&gt;Baseline &lt;/b&gt;BH Prvdr Data&amp;nbsp;" style="shape=cylinder3;whiteSpace=wrap;html=1;boundedLbl=1;backgroundOutline=1;size=15;fillColor=#dae8fc;strokeColor=#6c8ebf;" parent="1" vertex="1">
          <mxGeometry x="125" y="-860" width="100" height="90" as="geometry" />
        </mxCell>
        <mxCell id="Y0CWCf-vrmVGF1hzHRmy-8" value="" style="endArrow=classic;html=1;rounded=0;" parent="1" edge="1">
          <mxGeometry width="50" height="50" relative="1" as="geometry">
            <mxPoint x="170" y="-741" as="sourcePoint" />
            <mxPoint x="280" y="-670" as="targetPoint" />
          </mxGeometry>
        </mxCell>
        <mxCell id="Y0CWCf-vrmVGF1hzHRmy-16" value="&lt;font style=&quot;font-size: 11px;&quot;&gt;EAP&amp;nbsp;&lt;br&gt;Claims&lt;/font&gt;" style="shape=cylinder3;whiteSpace=wrap;html=1;boundedLbl=1;backgroundOutline=1;size=15;fillColor=#fff2cc;strokeColor=#d6b656;" parent="1" vertex="1">
          <mxGeometry x="230" y="-1005" width="50" height="70" as="geometry" />
        </mxCell>
        <mxCell id="Y0CWCf-vrmVGF1hzHRmy-38" value="Provider Activeness&lt;br&gt;Scoring" style="shape=parallelogram;perimeter=parallelogramPerimeter;whiteSpace=wrap;html=1;fixedSize=1;fillColor=#e1d5e7;strokeColor=#9673a6;" parent="1" vertex="1">
          <mxGeometry x="300" y="-680" width="175" height="70" as="geometry" />
        </mxCell>
        <mxCell id="Y0CWCf-vrmVGF1hzHRmy-39" value="Based on the final consolidated BH Prvdr data, create a confidence score of how likely the provider is active within the next 6 months.&amp;nbsp;ML based.&amp;nbsp;&lt;br&gt;Data: consolidated internal &amp;amp; external" style="text;html=1;strokeColor=none;fillColor=none;align=center;verticalAlign=middle;whiteSpace=wrap;rounded=0;" parent="1" vertex="1">
          <mxGeometry x="290" y="-590" width="202.5" height="80" as="geometry" />
        </mxCell>
        <mxCell id="Y0CWCf-vrmVGF1hzHRmy-40" value="" style="endArrow=classic;html=1;rounded=0;" parent="1" edge="1">
          <mxGeometry width="50" height="50" relative="1" as="geometry">
            <mxPoint x="1610" y="-800.5" as="sourcePoint" />
            <mxPoint x="1670" y="-800.5" as="targetPoint" />
          </mxGeometry>
        </mxCell>
        <mxCell id="Y0CWCf-vrmVGF1hzHRmy-41" value="" style="endArrow=classic;html=1;rounded=0;" parent="1" edge="1">
          <mxGeometry width="50" height="50" relative="1" as="geometry">
            <mxPoint x="1600" y="-835" as="sourcePoint" />
            <mxPoint x="1660" y="-890" as="targetPoint" />
          </mxGeometry>
        </mxCell>
        <mxCell id="Y0CWCf-vrmVGF1hzHRmy-45" value="" style="endArrow=classic;html=1;rounded=0;" parent="1" edge="1">
          <mxGeometry width="50" height="50" relative="1" as="geometry">
            <mxPoint x="559.5" y="-670" as="sourcePoint" />
            <mxPoint x="559.5" y="-730" as="targetPoint" />
          </mxGeometry>
        </mxCell>
        <mxCell id="Y0CWCf-vrmVGF1hzHRmy-46" value="&lt;b&gt;Validated&lt;/b&gt;&lt;br&gt;BH Prvdr Data" style="shape=cylinder3;whiteSpace=wrap;html=1;boundedLbl=1;backgroundOutline=1;size=15;fillColor=#dae8fc;strokeColor=#6c8ebf;" parent="1" vertex="1">
          <mxGeometry x="510" y="-830" width="100" height="80" as="geometry" />
        </mxCell>
        <mxCell id="Y0CWCf-vrmVGF1hzHRmy-47" value="Yes" style="text;html=1;strokeColor=none;fillColor=none;align=center;verticalAlign=middle;whiteSpace=wrap;rounded=0;" parent="1" vertex="1">
          <mxGeometry x="550" y="-710" width="60" height="30" as="geometry" />
        </mxCell>
        <mxCell id="Y0CWCf-vrmVGF1hzHRmy-48" value="Manual Validation&amp;nbsp;&lt;br&gt;for Medium-Low confidence Prvdr" style="rounded=0;whiteSpace=wrap;html=1;" parent="1" vertex="1">
          <mxGeometry x="660" y="-770" width="162.5" height="60" as="geometry" />
        </mxCell>
        <mxCell id="Y0CWCf-vrmVGF1hzHRmy-49" value="" style="endArrow=classic;html=1;rounded=0;" parent="1" edge="1">
          <mxGeometry width="50" height="50" relative="1" as="geometry">
            <mxPoint x="620" y="-630" as="sourcePoint" />
            <mxPoint x="700" y="-690" as="targetPoint" />
          </mxGeometry>
        </mxCell>
        <mxCell id="Y0CWCf-vrmVGF1hzHRmy-50" value="High Confidence Prvdr?" style="ellipse;shape=cloud;whiteSpace=wrap;html=1;align=center;" parent="1" vertex="1">
          <mxGeometry x="500" y="-660" width="120" height="80" as="geometry" />
        </mxCell>
        <mxCell id="Y0CWCf-vrmVGF1hzHRmy-51" value="No" style="text;html=1;strokeColor=none;fillColor=none;align=center;verticalAlign=middle;whiteSpace=wrap;rounded=0;" parent="1" vertex="1">
          <mxGeometry x="610" y="-680" width="60" height="30" as="geometry" />
        </mxCell>
        <mxCell id="Y0CWCf-vrmVGF1hzHRmy-54" value="" style="endArrow=classic;html=1;rounded=0;" parent="1" edge="1">
          <mxGeometry width="50" height="50" relative="1" as="geometry">
            <mxPoint x="740" y="-790" as="sourcePoint" />
            <mxPoint x="610" y="-810" as="targetPoint" />
          </mxGeometry>
        </mxCell>
        <mxCell id="Y0CWCf-vrmVGF1hzHRmy-55" value="Only Validated Prvdr" style="text;html=1;strokeColor=none;fillColor=none;align=center;verticalAlign=middle;whiteSpace=wrap;rounded=0;" parent="1" vertex="1">
          <mxGeometry x="730" y="-820" width="92.5" height="30" as="geometry" />
        </mxCell>
        <mxCell id="qqAPJzGaAdO9q2L2U7it-1" value="&lt;ul&gt;&lt;li&gt;&lt;b&gt;Primary Goal: remove &quot;ghost&quot; provider&lt;/b&gt;&lt;/li&gt;&lt;li&gt;Secondary Goal: provide more updated /correct provider information&amp;nbsp;&lt;/li&gt;&lt;li&gt;How good is the Provider Activeness scoring if we only use internal data?&lt;/li&gt;&lt;ul&gt;&lt;li style=&quot;&quot;&gt;Yes, Quick win&lt;/li&gt;&lt;li style=&quot;&quot;&gt;No, Need to gather external data&amp;nbsp;&lt;/li&gt;&lt;ul&gt;&lt;li style=&quot;&quot;&gt;maybe only minimum for now&amp;nbsp;&lt;/li&gt;&lt;li style=&quot;&quot;&gt;Psychology Today&lt;/li&gt;&lt;li style=&quot;&quot;&gt;Alma, Headway&lt;/li&gt;&lt;/ul&gt;&lt;/ul&gt;&lt;/ul&gt;" style="text;html=1;strokeColor=none;fillColor=none;align=left;verticalAlign=middle;whiteSpace=wrap;rounded=0;" parent="1" vertex="1">
          <mxGeometry x="380" y="-990" width="440" height="130" as="geometry" />
        </mxCell>
      </root>
    </mxGraphModel>
  </diagram>
</mxfile>
